<?xml version="1.0" encoding="utf-8"?>
<!-- Generator: Adobe Illustrator 22.1.0, SVG Export Plug-In . SVG Version: 6.00 Build 0)  -->
<svg version="1.1" id="Layer_1" xmlns="http://www.w3.org/2000/svg" xmlns:xlink="http://www.w3.org/1999/xlink" x="0px" y="0px"
	 viewBox="0 0 700 700" style="enable-background:new 0 0 700 700;" xml:space="preserve">
<path d="M531.1,406.3c-1.7-4.2-5.8-6.9-10.4-6.9h-40.4v-71.7c0-6.2-5-11.2-11.2-11.2c-6.2,0-11.2,5-11.2,11.2v71.7h-40
	c-4.6,0-8.6,2.7-10.3,6.9c-1.7,4.2-0.8,9,2.4,12.2l51.4,51.4c2.1,2.1,4.9,3.3,7.9,3.3c3,0,5.8-1.2,7.9-3.3l51.4-51.4
	C531.9,415.3,532.8,410.5,531.1,406.3L531.1,406.3z M469.3,446.2L445,421.8h48.7L469.3,446.2z M379.6,318.8c-0.4-3-1.9-5.6-4.3-7.4
	l-39.9-30.2v-50.4c0-6.2-5-11.2-11.2-11.2s-11.2,5-11.2,11.2v56c0,3.5,1.6,6.8,4.4,8.9l44.3,33.6c2,1.5,4.3,2.3,6.8,2.3
	c3.5,0,6.8-1.7,8.9-4.4C379.2,324.8,380,321.8,379.6,318.8L379.6,318.8z M373.9,399.4H207.5c-9.4,0-17-7.6-17-16.8l0-217.7
	c0-9.3,7.6-16.8,17-16.8h30v13.3c0,14.1,11.5,25.6,25.6,25.6c14.1,0,25.6-11.5,25.6-25.6V148h69.5v13.3c0,14.1,11.5,25.6,25.6,25.6
	c14.1,0,25.6-11.5,25.6-25.6V148h31.6c9.4,0,17,7.6,17,16.8v119c0,6.2,5,11.2,11.2,11.2c6.2,0,11.2-5,11.2-11.2l0-119
	c0-21.6-17.7-39.2-39.4-39.2h-31.6v-13.3c0-14.1-11.5-25.6-25.6-25.6s-25.6,11.5-25.6,25.6v13.3h-69.5v-13.3
	c0-14.1-11.5-25.6-25.6-25.6s-25.6,11.5-25.6,25.6v13.3h-30c-21.7,0-39.4,17.6-39.4,39.2v217.7c0,21.6,17.7,39.2,39.4,39.2h166.4
	c6.2,0,11.2-5,11.2-11.2C385.1,404.4,380.1,399.4,373.9,399.4L373.9,399.4z M380.5,112.3c0-1.7,1.4-3.2,3.2-3.2s3.2,1.4,3.2,3.2v49
	c0,1.7-1.4,3.2-3.2,3.2s-3.2-1.4-3.2-3.2V112.3z M259.9,112.3c0-1.7,1.4-3.2,3.2-3.2c1.7,0,3.2,1.4,3.2,3.2v49
	c0,1.7-1.4,3.2-3.2,3.2c-1.7,0-3.2-1.4-3.2-3.2V112.3z M324.2,188.8c-54,0-98,44-98,98s44,98,98,98s98-44,98-98
	S378.2,188.8,324.2,188.8z M324.2,362.4c-41.7,0-75.6-33.9-75.6-75.6s33.9-75.6,75.6-75.6s75.6,33.9,75.6,75.6
	S365.8,362.4,324.2,362.4z"/>
</svg>
