<?xml version="1.0" encoding="utf-8"?>
<!-- Generator: Adobe Illustrator 22.1.0, SVG Export Plug-In . SVG Version: 6.00 Build 0)  -->
<svg version="1.1" id="Layer_1" xmlns="http://www.w3.org/2000/svg" xmlns:xlink="http://www.w3.org/1999/xlink" x="0px" y="0px"
	 viewBox="0 0 700 700" style="enable-background:new 0 0 700 700;" xml:space="preserve">
<path d="M192.5,184.6h8.8v43.8c0,2.3,0.9,4.5,2.6,6.2s3.9,2.6,6.2,2.6h70c2.3,0,4.5-0.9,6.2-2.6s2.6-3.9,2.6-6.2v-43.8h8.8
	c2.3,0,4.5-0.9,6.2-2.6s2.6-3.9,2.6-6.2v-17.5c0-3.3-1.9-6.3-4.8-7.8l-52.5-26.3c-2.5-1.2-5.4-1.2-7.8,0l-52.5,26.3
	c-3,1.5-4.8,4.5-4.8,7.8v17.5c0,2.3,0.9,4.5,2.6,6.2S190.2,184.6,192.5,184.6L192.5,184.6z M271.3,219.6h-17.5v-17.5h-17.5v17.5
	h-17.5v-35h52.5V219.6z M201.3,163.8l43.8-21.9l43.8,21.9v3.3h-87.5V163.8z"/>
<path d="M140,297.5h183.8V315H140V297.5z"/>
<path d="M140,332.5h183.8V350H140V332.5z"/>
<path d="M140,472.5h87.5V490H140V472.5z"/>
<path d="M140,437.5h122.5V455H140V437.5z"/>
<path d="M140,367.5h183.8V385H140V367.5z"/>
<path d="M595,495.1V380.6c0.1-22.3-6.2-44.2-18.2-63c-11.9-18.9-28.9-33.9-49.1-43.5c1.9-1.3,3.8-2.7,5.5-4.2l32.4-26.9
	c3.7-3.1,4.2-8.6,1.1-12.3s-8.6-4.2-12.3-1.1l-30.7,25.6l9.7-34h0c0.8-2.6,0.2-5.5-1.4-7.7c-1.7-2.2-4.3-3.5-7-3.5h-35v-61.3
	c0-0.2-0.1-0.4-0.1-0.5c0-0.7-0.2-1.4-0.4-2c-0.1-0.3-0.2-0.6-0.3-0.9c-0.4-0.9-0.9-1.8-1.5-2.5l-87.5-96.3
	c-0.8-0.8-1.6-1.4-2.6-1.9c-0.3-0.1-0.5-0.2-0.8-0.3c-0.8-0.3-1.6-0.5-2.5-0.5c-0.2,0-0.3-0.1-0.5-0.1h-175v-4.4
	c0-7.8-4.2-15-10.9-18.9c-6.8-3.9-15.1-3.9-21.9,0c-6.8,3.9-10.9,11.1-10.9,18.9v4.4h-61.3c-4.8,0-8.8,3.9-8.8,8.8v481.3
	c0,2.3,0.9,4.5,2.6,6.2s3.9,2.6,6.2,2.6h472.5c2.3,0,4.5-0.9,6.2-2.6l17.5-17.5c3.4-3.4,3.4-9,0-12.4L595,495.1z M502,267.7
	c-13.4,4.7-28,4.7-41.4,0l-11.5-40.2h64.3L502,267.7z M461.5,140h-59V75.1l38.6,42.5L461.5,140z M192.5,39.4c0-2.4,2-4.4,4.4-4.4
	s4.4,2,4.4,4.4v4.4h-8.8V39.4z M122.5,61.3H175v18.4h-26.3c-4.8,0-8.8,3.9-8.8,8.8v182.9c0,2.3,0.9,4.5,2.6,6.2s3.9,2.6,6.2,2.6
	h192.5c2.3,0,4.5-0.9,6.2-2.6s2.6-3.9,2.6-6.2V88.4c0-2.3-0.9-4.5-2.6-6.2s-3.9-2.6-6.2-2.6H192.5V61.3H385v87.5
	c0,2.3,0.9,4.5,2.6,6.2s3.9,2.6,6.2,2.6h78.8V210h-35c-2.7,0-5.3,1.3-7,3.5c-1.7,2.2-2.2,5-1.4,7.7l9.7,34l-30.7-25.6v0
	c-1.8-1.5-4.1-2.2-6.4-2c-2.3,0.2-4.4,1.3-5.9,3.1c-3.1,3.7-2.6,9.2,1.1,12.3l32.4,26.9c0.7,0.6,1.5,1.1,2.2,1.7v0
	c-21.4,9.1-39.8,24.2-52.7,43.6c-12.9,19.4-19.9,42.1-20.1,65.4v114.5l-14.9,14.9v0c-3.4,3.4-3.4,9,0,12.4l2.6,2.6H122.5L122.5,61.3
	z M192.5,97.1h8.8v3.5c0,2.4-2,4.4-4.4,4.4s-4.4-2-4.4-4.4V97.1z M196.9,122.5c5.8,0,11.4-2.3,15.5-6.4s6.4-9.7,6.4-15.5v-3.5h113.7
	v165.4h-175V97.1H175v3.5c0,5.8,2.3,11.4,6.4,15.5S191.1,122.5,196.9,122.5L196.9,122.5z M582.6,525H371.1l-8.8-8.8l11.3-11.3h0
	c1.6-1.6,2.6-3.9,2.6-6.2V380.6c0.1-22.3,7.6-43.9,21.3-61.5c13.7-17.6,32.8-30.2,54.4-35.9c17.5,6.9,36.9,7.4,54.8,1.4
	c20.5,6.3,38.5,19.1,51.2,36.4c12.7,17.3,19.6,38.2,19.6,59.7v118.1c0,2.3,0.9,4.5,2.6,6.2l11.3,11.3L582.6,525z"/>
<path d="M482.4,371.5c7.1,0,12.8,5.7,12.8,12.8h17.5c0-6.5-2.1-12.8-6-18c-3.9-5.2-9.3-9-15.5-10.9v-14.2h-17.5v14.2
	c-9.3,2.8-16.8,9.9-19.9,19.2c-3.2,9.2-1.6,19.4,4,27.4c5.7,7.9,14.9,12.6,24.6,12.6c5.2,0,9.8,3.1,11.8,7.9
	c2,4.8,0.9,10.3-2.8,13.9c-3.7,3.7-9.2,4.7-13.9,2.8c-4.8-2-7.9-6.6-7.9-11.8h-17.5c0,6.5,2.1,12.8,6,18s9.3,9,15.5,10.9v16.3h17.5
	v-16.3c9.3-2.8,16.8-9.9,19.9-19.2c3.1-9.2,1.6-19.4-4-27.3c-5.7-7.9-14.8-12.6-24.6-12.6c-7.1,0-12.8-5.7-12.8-12.8
	S475.3,371.5,482.4,371.5L482.4,371.5z"/>
<path d="M507.5,175H525v17.5h-17.5V175z"/>
<path d="M507.5,140H525v17.5h-17.5V140z"/>
<path d="M507.5,87.5H525v35h-17.5V87.5z"/>
</svg>
