<?xml version="1.0" encoding="utf-8"?>
<!-- Generator: Adobe Illustrator 22.1.0, SVG Export Plug-In . SVG Version: 6.00 Build 0)  -->
<svg version="1.1" id="Layer_1" xmlns="http://www.w3.org/2000/svg" xmlns:xlink="http://www.w3.org/1999/xlink" x="0px" y="0px"
	 viewBox="0 0 700 700" style="enable-background:new 0 0 700 700;" xml:space="preserve">
<path d="M206.4,413.7l271.9-271.9l29.4,29.4L235.8,443.1L206.4,413.7z"/>
<path d="M266.9,275.4c-48.1,0-87.3-39.2-87.3-87.3c0-48.1,39.2-87.3,87.3-87.3c48.1,0,87.3,39.2,87.3,87.3S315,275.4,266.9,275.4z
	 M266.9,142.5c-25.2,0-45.7,20.5-45.7,45.7c0,25.2,20.5,45.7,45.7,45.7c25.2,0,45.7-20.5,45.7-45.7
	C312.5,162.9,292,142.5,266.9,142.5z"/>
<path d="M447.3,484.1c-48.1,0-87.3-39.2-87.3-87.3c0-48.1,39.2-87.3,87.3-87.3s87.3,39.2,87.3,87.3S495.4,484.1,447.3,484.1z
	 M447.3,351.1c-25.2,0-45.7,20.5-45.7,45.7c0,25.2,20.5,45.7,45.7,45.7S493,422,493,396.8C493,371.6,472.5,351.1,447.3,351.1z"/>
</svg>
