<?xml version="1.0" encoding="utf-8"?>
<!-- Generator: Adobe Illustrator 22.1.0, SVG Export Plug-In . SVG Version: 6.00 Build 0)  -->
<svg version="1.1" id="Layer_1" xmlns="http://www.w3.org/2000/svg" xmlns:xlink="http://www.w3.org/1999/xlink" x="0px" y="0px"
	 viewBox="0 0 700 700" style="enable-background:new 0 0 700 700;" xml:space="preserve">
<path d="M603.8,35h-52.5V17.5h-17.5V35h-52.5V17.5h-17.5V35h-52.5V17.5h-17.5V35h-52.5V17.5h-17.5V35h-52.5V17.5h-17.5V35h-35
	c-4.8,0-8.8,3.9-8.8,8.8v218.8h17.5V113.8H595v175h-61.3c-4.8,0-8.8,3.9-8.8,8.8v61.3h-70v17.5h78.8c2.3,0,4.5-0.9,6.2-2.6
	l55.1-55.1v75.1H455v17.5h148.8c2.3,0,4.5-0.9,6.2-2.6s2.6-3.9,2.6-6.2V43.8c0-2.3-0.9-4.5-2.6-6.2S606.1,35,603.8,35L603.8,35z
	 M227.5,96.3V52.5h26.3V70h17.5V52.5h52.5V70h17.5V52.5h52.5V70h17.5V52.5h52.5V70h17.5V52.5h52.5V70h17.5V52.5H595v43.8H227.5z
	 M542.5,346.4v-40.1h40.1L542.5,346.4z"/>
<path d="M428.8,140h-35c-4.8,0-8.8,3.9-8.8,8.8v35c0,2.3,0.9,4.5,2.6,6.2s3.9,2.6,6.2,2.6h35c2.3,0,4.5-0.9,6.2-2.6s2.6-3.9,2.6-6.2
	v-35c0-2.3-0.9-4.5-2.6-6.2S431.1,140,428.8,140z M420,175h-17.5v-17.5H420V175z"/>
<path d="M463.8,192.5h35c2.3,0,4.5-0.9,6.2-2.6s2.6-3.9,2.6-6.2v-35c0-2.3-0.9-4.5-2.6-6.2s-3.9-2.6-6.2-2.6h-35
	c-4.8,0-8.8,3.9-8.8,8.8v35c0,2.3,0.9,4.5,2.6,6.2S461.4,192.5,463.8,192.5z M472.5,157.5H490V175h-17.5V157.5z"/>
<path d="M533.8,192.5h35c2.3,0,4.5-0.9,6.2-2.6s2.6-3.9,2.6-6.2v-35c0-2.3-0.9-4.5-2.6-6.2s-3.9-2.6-6.2-2.6h-35
	c-4.8,0-8.8,3.9-8.8,8.8v35c0,2.3,0.9,4.5,2.6,6.2S531.4,192.5,533.8,192.5z M542.5,157.5H560V175h-17.5V157.5z"/>
<path d="M323.8,192.5h35c2.3,0,4.5-0.9,6.2-2.6s2.6-3.9,2.6-6.2v-35c0-2.3-0.9-4.5-2.6-6.2s-3.9-2.6-6.2-2.6h-35
	c-4.8,0-8.8,3.9-8.8,8.8v35c0,2.3,0.9,4.5,2.6,6.2S321.4,192.5,323.8,192.5z M332.5,157.5H350V175h-17.5V157.5z"/>
<path d="M428.8,210h-35c-4.8,0-8.8,3.9-8.8,8.8v35c0,2.3,0.9,4.5,2.6,6.2s3.9,2.6,6.2,2.6h35c2.3,0,4.5-0.9,6.2-2.6s2.6-3.9,2.6-6.2
	v-35c0-2.3-0.9-4.5-2.6-6.2S431.1,210,428.8,210z M420,245h-17.5v-17.5H420V245z"/>
<path d="M455,253.8c0,2.3,0.9,4.5,2.6,6.2s3.9,2.6,6.2,2.6h35c2.3,0,4.5-0.9,6.2-2.6s2.6-3.9,2.6-6.2v-35c0-2.3-0.9-4.5-2.6-6.2
	s-3.9-2.6-6.2-2.6h-35c-4.8,0-8.8,3.9-8.8,8.8V253.8z M472.5,227.5H490V245h-17.5V227.5z"/>
<path d="M525,253.8c0,2.3,0.9,4.5,2.6,6.2s3.9,2.6,6.2,2.6h35c2.3,0,4.5-0.9,6.2-2.6s2.6-3.9,2.6-6.2v-35c0-2.3-0.9-4.5-2.6-6.2
	s-3.9-2.6-6.2-2.6h-35c-4.8,0-8.8,3.9-8.8,8.8V253.8z M542.5,227.5H560V245h-17.5V227.5z"/>
<path d="M315,253.8c0,2.3,0.9,4.5,2.6,6.2s3.9,2.6,6.2,2.6h35c2.3,0,4.5-0.9,6.2-2.6s2.6-3.9,2.6-6.2v-35c0-2.3-0.9-4.5-2.6-6.2
	s-3.9-2.6-6.2-2.6h-35c-4.8,0-8.8,3.9-8.8,8.8V253.8z M332.5,227.5H350V245h-17.5V227.5z"/>
<path d="M288.8,262.5c2.3,0,4.5-0.9,6.2-2.6s2.6-3.9,2.6-6.2v-35c0-2.3-0.9-4.5-2.6-6.2s-3.9-2.6-6.2-2.6h-35
	c-4.8,0-8.8,3.9-8.8,8.8v35c0,2.3,0.9,4.5,2.6,6.2s3.9,2.6,6.2,2.6H288.8z M262.5,227.5H280V245h-17.5V227.5z"/>
<path d="M455,323.8c0,2.3,0.9,4.5,2.6,6.2s3.9,2.6,6.2,2.6h35c2.3,0,4.5-0.9,6.2-2.6s2.6-3.9,2.6-6.2v-35c0-2.3-0.9-4.5-2.6-6.2
	s-3.9-2.6-6.2-2.6h-35c-4.8,0-8.8,3.9-8.8,8.8V323.8z M472.5,297.5H490V315h-17.5V297.5z"/>
<path d="M428.8,280H96.3c-4.8,0-8.8,3.9-8.8,8.8v245c0,2.3,0.9,4.5,2.6,6.2s3.9,2.6,6.2,2.6h332.5c2.3,0,4.5-0.9,6.2-2.6
	s2.6-3.9,2.6-6.2v-245c0-2.3-0.9-4.5-2.6-6.2S431.1,280,428.8,280z M288.8,411.2v-69.9c11,8.2,17.5,21.2,17.5,34.9
	S299.8,403,288.8,411.2L288.8,411.2z M323.8,376.3c-0.1-16.5-6.8-32.3-18.6-43.8H369c2.7,7.5,8.5,13.3,16,16V404
	c-7.5,2.7-13.3,8.5-16,16h-63.9C317,408.5,323.7,392.8,323.8,376.3z M288.8,472.5H420V490H288.8V472.5z M288.8,437.5h87.5
	c2.3,0,4.5-0.9,6.2-2.6s2.6-3.9,2.6-6.2c0-4.8,3.9-8.8,8.8-8.8c2.3,0,4.5-0.9,6.2-2.6s2.6-3.9,2.6-6.2v-70c0-2.3-0.9-4.5-2.6-6.2
	s-3.9-2.6-6.2-2.6c-4.8,0-8.8-3.9-8.8-8.8c0-2.3-0.9-4.5-2.6-6.2s-3.9-2.6-6.2-2.6h-87.5v-17.5H420V455H288.8V437.5z M271.3,297.5
	V455h-17.5V297.5H271.3z M236.3,490H105v-17.5h131.3V490z M236.3,341.3v69.9v0c-11-8.2-17.5-21.2-17.5-34.9S225.2,349.5,236.3,341.3
	L236.3,341.3z M201.3,376.3c0.1,16.5,6.8,32.3,18.6,43.8H156c-2.7-7.5-8.5-13.3-16-16v-55.5c7.5-2.7,13.3-8.5,16-16h63.9
	C208,344,201.3,359.8,201.3,376.3z M105,297.5h131.3V315h-87.5c-4.8,0-8.8,3.9-8.8,8.8c0,2.3-0.9,4.5-2.6,6.2s-3.9,2.6-6.2,2.6
	c-4.8,0-8.8,3.9-8.8,8.8v70c0,2.3,0.9,4.5,2.6,6.2s3.9,2.6,6.2,2.6s4.5,0.9,6.2,2.6s2.6,3.9,2.6,6.2s0.9,4.5,2.6,6.2
	s3.9,2.6,6.2,2.6h87.5V455H105V297.5z M105,507.5h131.3V525H105V507.5z M253.8,525v-52.5h17.5V525H253.8z M288.8,525v-17.5H420V525
	H288.8z"/>
<path d="M341.3,367.5h17.5V385h-17.5V367.5z"/>
<path d="M166.3,367.5h17.5V385h-17.5V367.5z"/>
<path d="M175,140h17.5v17.5H175V140z"/>
<path d="M140,140h17.5v17.5H140V140z"/>
<path d="M105,140h17.5v17.5H105V140z"/>
<path d="M105,175h17.5v17.5H105V175z"/>
<path d="M105,210h17.5v17.5H105V210z"/>
<path d="M105,245h17.5v17.5H105V245z"/>
<path d="M490,498.8h17.5v17.5H490V498.8z"/>
<path d="M455,498.8h17.5v17.5H455V498.8z"/>
<path d="M525,498.8h17.5v17.5H525V498.8z"/>
<path d="M560,498.8h17.5v17.5H560V498.8z"/>
<path d="M560,463.8h17.5v17.5H560V463.8z"/>
<path d="M560,428.8h17.5v17.5H560V428.8z"/>
</svg>
