<?xml version="1.0" encoding="utf-8"?>
<!-- Generator: Adobe Illustrator 22.1.0, SVG Export Plug-In . SVG Version: 6.00 Build 0)  -->
<svg version="1.1" id="Layer_1" xmlns="http://www.w3.org/2000/svg" xmlns:xlink="http://www.w3.org/1999/xlink" x="0px" y="0px"
	 viewBox="0 0 700 700" style="enable-background:new 0 0 700 700;" xml:space="preserve">
<path d="M513.6,509.9H122.3c-9.4,0-18.4-3.6-25-10.2c-6.7-6.6-10.4-15.6-10.5-24.9V219.2c0.1-9.4,3.8-18.3,10.5-24.9
	c6.7-6.6,15.7-10.3,25-10.2H151V85.2c0-9.3,3.8-18.3,10.4-24.9c6.6-6.6,15.6-10.3,24.9-10.3h391.5c9.3,0,18.3,3.7,24.9,10.3
	s10.4,15.5,10.4,24.9v215c0,9.3-3.8,18.3-10.4,24.9c-6.6,6.6-15.6,10.3-24.9,10.3h-28.7v139.4c-0.1,9.4-3.8,18.3-10.5,24.9
	C532,506.3,523,510,513.6,509.9L513.6,509.9z M104.3,464.3v10.5c0.1,4.7,2,9.2,5.4,12.6c3.4,3.3,7.9,5.1,12.7,5.1h391.3
	c4.7,0,9.3-1.8,12.7-5.1c3.4-3.3,5.3-7.8,5.4-12.6v-10.5c-5.5,3.2-11.7,4.9-18,4.9H122.3C116,469.2,109.8,467.5,104.3,464.3z
	 M104.3,434c0.1,4.7,2,9.2,5.4,12.6c3.4,3.3,7.9,5.1,12.7,5.1h391.3c4.7,0,9.3-1.8,12.7-5.1c3.4-3.3,5.3-7.8,5.4-12.6V219.2
	c-0.1-4.7-2-9.3-5.4-12.6c-3.4-3.3-7.9-5.1-12.7-5.1H122.3c-4.7,0-9.3,1.8-12.7,5.1c-3.4,3.3-5.3,7.8-5.4,12.6V434z M549.2,317.9
	h28.7c4.7,0,9.2-1.8,12.6-5.1c3.3-3.3,5.2-7.8,5.3-12.5v-215c0-4.7-1.9-9.2-5.3-12.5c-3.3-3.3-7.9-5.2-12.6-5.1H186.4
	c-4.7,0-9.2,1.8-12.6,5.1c-3.3,3.3-5.2,7.8-5.3,12.5v98.8h16.8v-34.8c0-2.3,0.9-4.5,2.6-6.2c1.6-1.6,3.9-2.6,6.2-2.6
	c12.6,0,24.7-5,33.6-13.9c8.9-8.9,14-21,14-33.5c0-2.3,0.9-4.5,2.6-6.2c1.6-1.6,3.9-2.6,6.2-2.6h263.4c2.3,0,4.5,0.9,6.2,2.6
	c1.6,1.6,2.6,3.9,2.6,6.2c0,12.6,5,24.6,13.9,33.5c8.9,8.9,20.9,13.9,33.5,13.9c2.3,0,4.6,0.9,6.2,2.6s2.6,3.9,2.6,6.2v86.9
	c-0.5,13.4-20.9,6.6-29.6,13.7L549.2,317.9z M549.2,219.2v11.7h0c3.9-1.3,8-2.3,12.1-2.9v-70.6c-14.1-1.9-27.1-8.4-37.1-18.4
	c-10-10-16.5-23.1-18.4-37.1H258.6c-2,14.1-8.5,27.1-18.5,37.2c-10.1,10-23.1,16.5-37.2,18.4v26.6h138.4c3.3-48,78.1-48.6,81.6,0
	h90.8l0,0c9.4,0,18.4,3.6,25,10.2C545.3,200.9,549.1,209.8,549.2,219.2L549.2,219.2z M358.8,184.1h46.4c-1.4-7.3-6.1-13.5-12.7-16.8
	c-6.6-3.3-14.4-3.3-21,0C364.9,170.6,360.2,176.8,358.8,184.1L358.8,184.1z M449.7,435H186.3c-2.3,0-4.5-0.9-6.2-2.6
	s-2.6-3.9-2.6-6.2c0-12.6-5.1-24.6-14-33.5s-21-13.9-33.5-13.9c-2.3,0-4.6-0.9-6.2-2.6c-1.6-1.6-2.6-3.9-2.6-6.2v-87
	c0-2.3,0.9-4.5,2.6-6.2c1.6-1.6,3.9-2.6,6.2-2.6c12.6,0,24.6-5,33.5-13.9s13.9-20.9,14-33.5c0-2.3,0.9-4.5,2.6-6.2
	c1.6-1.6,3.9-2.6,6.2-2.6h263.4c2.3,0,4.5,0.9,6.2,2.6c1.6,1.6,2.6,3.9,2.6,6.2c0,12.6,5.1,24.6,14,33.5s21,13.9,33.5,13.9
	c2.3,0,4.5,0.9,6.2,2.6c1.6,1.6,2.6,3.9,2.6,6.2v87v0c0,2.3-0.9,4.6-2.6,6.2c-1.6,1.6-3.9,2.6-6.2,2.6c-12.6,0-24.6,5-33.5,13.9
	s-13.9,20.9-14,33.5c0,2.3-0.9,4.6-2.6,6.2S452,435,449.7,435L449.7,435z M194.4,417.5h247.1c2-14.1,8.5-27.1,18.5-37.1
	c10.1-10,23.1-16.5,37.2-18.4v-70.7c-14.1-1.9-27.1-8.4-37.2-18.4c-10.1-10-16.6-23.1-18.5-37.1H194.4c-2,14.1-8.5,27.1-18.5,37.1
	c-10.1,10-23.1,16.5-37.2,18.4V362c14.1,1.9,27.1,8.4,37.2,18.4C186,390.4,192.5,403.4,194.4,417.5L194.4,417.5z M318,367.3
	L318,367.3c-10.9,0.2-21.5-4-29.3-11.7c-7.8-7.7-12-18.3-11.8-29.2c0.4-14.4,8.4-27.5,20.9-34.6c12.5-7.1,27.9-7.1,40.4,0
	s20.5,20.2,20.9,34.6c0.2,10.9-4.1,21.5-11.8,29.2C339.5,363.3,328.9,367.6,318,367.3L318,367.3z M294.4,326.6
	c-0.1,6.4,2.3,12.5,6.8,17c4.5,4.5,10.6,7.1,16.9,7c6.4,0,12.4-2.6,16.9-7.2c4.4-4.6,6.8-10.7,6.6-17.1c0.1-6.4-2.3-12.5-6.8-17
	c-4.5-4.5-10.6-7.1-16.9-7c-6.4,0-12.4,2.6-16.9,7.2C296.6,314.1,294.2,320.2,294.4,326.6z"/>
</svg>
