<?xml version="1.0" encoding="utf-8"?>
<!-- Generator: Adobe Illustrator 22.1.0, SVG Export Plug-In . SVG Version: 6.00 Build 0)  -->
<svg version="1.1" id="Layer_1" xmlns="http://www.w3.org/2000/svg" xmlns:xlink="http://www.w3.org/1999/xlink" x="0px" y="0px"
	 viewBox="0 0 700 700" style="enable-background:new 0 0 700 700;" xml:space="preserve">
<path d="M506.8,145.6c0-5.9-2.4-11.6-6.6-15.8c-4.2-4.2-9.9-6.6-15.8-6.6h-112V168h57.9l-224,224l31.7,31.7l224-224v57.9h44.8
	L506.8,145.6z"/>
<path d="M327.6,190.4c0-17.8-7.1-34.9-19.7-47.5c-12.6-12.6-29.7-19.7-47.5-19.7c-17.8,0-34.9,7.1-47.5,19.7
	c-12.6,12.6-19.7,29.7-19.7,47.5c0,17.8,7.1,34.9,19.7,47.5s29.7,19.7,47.5,19.7c17.8,0,34.9-7.1,47.5-19.7S327.6,208.2,327.6,190.4
	z M238,190.4c0-5.9,2.4-11.6,6.6-15.8c4.2-4.2,9.9-6.6,15.8-6.6c5.9,0,11.6,2.4,15.8,6.6c4.2,4.2,6.6,9.9,6.6,15.8
	c0,5.9-2.4,11.6-6.6,15.8c-4.2,4.2-9.9,6.6-15.8,6.6c-5.9,0-11.6-2.4-15.8-6.6C240.4,202,238,196.3,238,190.4z"/>
<path d="M372.4,369.6c0,17.8,7.1,34.9,19.7,47.5s29.7,19.7,47.5,19.7c17.8,0,34.9-7.1,47.5-19.7s19.7-29.7,19.7-47.5
	c0-17.8-7.1-34.9-19.7-47.5s-29.7-19.7-47.5-19.7c-17.8,0-34.9,7.1-47.5,19.7S372.4,351.8,372.4,369.6z M462,369.6
	c0,5.9-2.4,11.6-6.6,15.8c-4.2,4.2-9.9,6.6-15.8,6.6c-5.9,0-11.6-2.4-15.8-6.6c-4.2-4.2-6.6-9.9-6.6-15.8c0-5.9,2.4-11.6,6.6-15.8
	c4.2-4.2,9.9-6.6,15.8-6.6c5.9,0,11.6,2.4,15.8,6.6C459.6,358,462,363.7,462,369.6z"/>
</svg>
